<svg width="538" height="181" viewBox="0 0 538 181" fill="none" xmlns="http://www.w3.org/2000/svg">
<path fill-rule="evenodd" clip-rule="evenodd" d="M222.056 106.234V122.393C222.056 125.707 221.144 128.103 219.314 129.59C217.487 131.016 215.489 131.531 211.321 131.531C207.496 131.531 205.497 131.13 203.67 129.988C201.442 128.507 200.359 126.05 200.359 122.396V98.5836C200.359 95.046 201.384 92.5886 203.557 91.1625C205.384 89.9047 207.382 89.5038 211.324 89.5038C215.492 89.5038 217.49 90.018 219.317 91.4471C221.147 92.9313 222.059 95.3306 222.059 98.5836V101.61H213.665V100.068C213.665 97.7268 212.866 96.5302 211.211 96.5302C209.555 96.5302 208.756 97.7298 208.756 100.068V120.97C208.756 123.253 209.555 124.452 211.211 124.452C212.866 124.452 213.665 123.311 213.665 120.97V113.258H211.269V106.234H222.056ZM226.797 98.5806C226.797 95.0429 227.825 92.5855 229.995 91.1594C231.822 89.9567 233.82 89.5008 237.703 89.5008C241.93 89.5008 243.928 89.9567 245.755 91.444C247.582 92.9313 248.497 95.3275 248.497 98.5806V122.451C248.497 125.707 247.585 128.106 245.755 129.59C243.928 131.016 241.93 131.531 237.762 131.531C233.936 131.531 231.938 131.13 230.111 129.988C227.883 128.507 226.797 126.05 226.797 122.451V98.5806ZM240.103 100.065C240.103 97.7237 239.304 96.5271 237.645 96.5271C235.99 96.5271 235.191 97.7268 235.191 100.065V120.966C235.191 123.308 235.99 124.504 237.645 124.504C239.304 124.504 240.103 123.305 240.103 120.966V100.065ZM271.168 97.1545H262.259V106.234H270.767V113.258H262.259V123.877H271.168V130.9H253.862V90.1281H271.168V97.1545ZM294.407 90.1281V97.1545H288.238V130.9H279.846V97.1545H273.619V90.1281H294.407ZM311.539 90.1281H319.93V130.9H311.539V113.258H306.624V130.9H298.233V90.1281H306.624V106.234H311.539V90.1281ZM343.176 97.1545H334.261V106.234H342.775V113.258H334.261V123.877H343.176V130.9H325.87V90.1281H343.176V97.1545ZM357.795 117.371H346.94V110.629H357.795V117.371ZM371.266 130.9H362.875V90.1281H371.266V130.9ZM402.732 130.9H392.798L386.114 108.459C385.886 107.708 385.694 106.946 385.539 106.176C385.426 105.604 385.025 103.832 384.398 100.922C384.912 106.574 384.912 106.745 384.912 108V130.897H377.322V90.1281H387.311L393.652 110.286C394.053 111.657 394.393 112.799 394.567 113.772C394.793 114.687 395.02 115.599 395.194 116.514C395.369 117.199 395.708 118.684 396.109 120.339C395.369 115.715 395.142 113.888 395.142 111.89V90.1312H402.732V130.9ZM420.714 102.066C420.659 99.0947 420.546 98.299 420.031 97.5554C419.823 97.2314 419.535 96.9666 419.195 96.7865C418.854 96.6064 418.473 96.517 418.088 96.5271C416.659 96.5271 415.805 97.6686 415.805 99.6639C415.805 102.406 416.72 103.777 420.999 107.146C427.339 112.284 428.995 115.14 428.995 120.966C428.995 124.85 428.248 127.246 426.593 129.073C424.882 130.9 422.881 131.527 418.774 131.527C409.749 131.527 407.178 129.186 407.178 120.966C407.178 120.566 407.178 119.479 407.24 118.454H415.573V119.996C415.573 121.937 415.634 122.622 415.974 123.308C416.16 123.676 416.446 123.985 416.801 124.197C417.155 124.409 417.562 124.517 417.975 124.507C419.631 124.507 420.432 123.366 420.432 121.025C420.432 118.224 419.631 116.857 416.775 114.574C412.148 110.861 410.893 109.775 409.639 108.006C408.038 105.95 407.243 103.211 407.243 100.013C407.243 96.5883 408.158 93.7301 409.752 92.0194C411.294 90.3056 413.865 89.5069 417.862 89.5069C425.8 89.5069 428.71 92.1907 428.71 99.4436C428.71 100.132 428.71 100.986 428.649 102.069H420.714V102.066ZM451.785 90.1281V97.1545H445.615V130.9H437.224V97.1545H430.996V90.1281H451.785ZM464.001 130.9H455.61V90.1281H464.001V130.9ZM488.554 90.1281V97.1545H482.394V130.9H473.996V97.1545H467.772V90.1281H488.554ZM513.682 120.911C513.682 128.504 510.597 131.531 502.775 131.531C499.81 131.531 497.634 131.075 495.865 130.049C493.013 128.449 491.985 125.995 491.985 120.914V90.1281H500.376V120.911C500.376 123.308 501.178 124.507 502.833 124.507C504.428 124.507 505.291 123.308 505.291 120.911V90.1281H513.682V120.911ZM537.837 90.1281V97.1545H531.667V130.9H523.276V97.1545H517.048V90.1281H537.837ZM121.707 32.8337C121.707 39.6011 124.395 46.0913 129.181 50.8766C133.966 55.6619 140.456 58.3502 147.223 58.3502C153.991 58.3502 160.481 55.6619 165.266 50.8766C170.052 46.0913 172.74 39.6011 172.74 32.8337C172.792 29.4495 172.171 26.0888 170.912 22.947C169.654 19.8053 167.782 16.9453 165.408 14.5336C163.033 12.1219 160.202 10.2067 157.081 8.89941C153.959 7.5921 150.608 6.91886 147.223 6.91886C143.839 6.91886 140.488 7.5921 137.366 8.89941C134.244 10.2067 131.414 12.1219 129.039 14.5336C126.665 16.9453 124.793 19.8053 123.535 22.947C122.276 26.0888 121.655 29.4495 121.707 32.8337ZM114.39 32.8337C114.39 14.7016 129.091 0 147.227 0C165.359 0 180.06 14.6985 180.06 32.8337C180.06 50.9719 165.359 65.6674 147.227 65.6674C129.091 65.6674 114.39 50.9689 114.39 32.8337ZM122.319 90.0332H115.198C115.198 103.912 103.902 115.161 90.0239 115.161C86.7245 115.161 83.4574 114.51 80.4093 113.247C77.3612 111.984 74.5916 110.133 72.2589 107.8C69.9261 105.467 68.0758 102.697 66.8135 99.6483C65.5512 96.5999 64.9017 93.3327 64.9021 90.0332C64.9021 83.3705 67.5489 76.9807 72.2601 72.2695C76.9714 67.5582 83.3612 64.9115 90.0239 64.9115L90.03 57.7382C72.1733 57.7382 57.6983 72.1796 57.6983 90.0363C57.6983 107.893 72.1703 122.362 90.027 122.362C107.884 122.362 122.319 107.89 122.319 90.0332Z" fill="#5649E6" fill-opacity="0.2"/>
<path fill-rule="evenodd" clip-rule="evenodd" d="M129.575 90.0333H136.724C136.724 115.798 115.788 136.681 90.0271 136.681C64.2687 136.681 43.3824 115.798 43.3824 90.0333C43.3824 64.2719 64.2657 43.3855 90.0271 43.3855L90.0301 50.5557C68.2257 50.5557 50.5465 68.2257 50.5465 90.0302C50.5465 111.835 68.2195 129.511 90.0271 129.511C111.832 129.514 129.575 111.841 129.575 90.0333Z" fill="#5649E6" fill-opacity="0.2"/>
<path fill-rule="evenodd" clip-rule="evenodd" d="M151.079 90.0333H143.885C143.885 119.755 119.742 143.845 90.0269 143.845C60.3055 143.845 36.2181 119.755 36.2181 90.0333C36.2181 60.318 60.3086 36.2245 90.0269 36.2245L90.0299 28.9778C56.2721 28.9778 28.904 56.2754 28.904 90.0333C28.904 123.791 56.2721 151.156 90.0269 151.156C123.785 151.156 151.079 123.791 151.079 90.0333Z" fill="#5649E6" fill-opacity="0.2"/>
<path fill-rule="evenodd" clip-rule="evenodd" d="M165.6 90.0332H158.409C158.409 127.769 127.766 158.363 90.0301 158.363C52.2908 158.363 21.6972 127.769 21.6972 90.0332C21.6972 52.2939 52.2908 21.7003 90.0301 21.7003V14.4108C48.2665 14.4108 14.4107 48.2635 14.4107 90.0301C14.4107 131.797 48.2665 165.652 90.0301 165.652C131.791 165.652 165.6 131.8 165.6 90.0332Z" fill="#5649E6" fill-opacity="0.2"/>
<path fill-rule="evenodd" clip-rule="evenodd" d="M180.06 90.0332L172.936 90.0302C172.936 135.79 135.793 172.884 90.0302 172.884C44.2699 172.884 7.17022 135.79 7.17022 90.0302C7.17022 44.2699 44.2699 7.17329 90.0302 7.17329V0C40.3038 0 0 40.3069 0 90.0302C0 139.753 40.3099 180.06 90.0302 180.06C139.753 180.06 180.06 139.757 180.06 90.0332Z" fill="#5649E6" fill-opacity="0.2"/>
</svg>
