<svg width="511" height="338" viewBox="0 0 511 338" fill="none" xmlns="http://www.w3.org/2000/svg">
<path d="M186.804 105.467H209.025V232.452H186.804V105.467Z" fill="#5649E6" fill-opacity="0.2"/>
<path d="M333.865 105.466L298.821 204.881H298.481L263.441 105.466H232.144V232.451H253.329V134.457H253.669L288.872 232.451H308.448L343.64 134.457H344.008V232.451H365.168V105.466H333.865Z" fill="#5649E6" fill-opacity="0.2"/>
<path d="M402.279 190.128C402.279 209.499 416.683 217.32 434.466 217.32C454.028 217.32 461.333 207.555 461.333 198.122C461.333 188.343 455.998 184.426 450.839 182.478C441.788 179.105 430.567 176.782 412.953 171.981C391.096 166.288 384.859 152.945 384.859 139.793C384.859 114.186 408.332 102.441 431.284 102.441C457.617 102.441 480.007 116.484 480.007 142.986H457.769C456.538 126.634 445.851 120.581 430.383 120.581C420.077 120.581 407.091 124.315 407.091 137.124C407.091 146.196 413.129 150.817 422.205 153.5C424.164 154.024 452.253 161.314 458.837 163.269C475.383 168.417 483.56 182.117 483.56 195.633C483.56 224.087 458.119 235.482 433.052 235.482C404.082 235.482 380.61 221.598 380.062 190.128H402.279Z" fill="#5649E6" fill-opacity="0.2"/>
<path d="M190.286 260.676H187.921V278.442H190.286V260.676Z" fill="#5649E6" fill-opacity="0.2"/>
<path d="M197.088 264.177H197.151L206.414 278.44H209.01V260.674H206.789V275.081H206.736L197.36 260.674H194.867V278.44H197.088V264.177Z" fill="#5649E6" fill-opacity="0.2"/>
<path d="M217.517 278.439H219.858V262.667H225.78V260.673H211.588V262.667H217.517V278.439Z" fill="#5649E6" fill-opacity="0.2"/>
<path d="M240.719 276.452H230.745V270.296H239.983V268.32H230.745V262.667H240.666V260.673H228.376V278.439H240.719V276.452Z" fill="#5649E6" fill-opacity="0.2"/>
<path d="M255.462 275.376C255.49 275.832 255.497 276.25 255.511 276.638C255.511 277.027 255.571 277.374 255.607 277.688C255.674 278.01 255.787 278.258 255.957 278.438H258.601C258.35 278.141 258.156 277.791 258.032 277.413C257.915 277.013 257.827 276.61 257.756 276.175C257.689 275.744 257.629 275.309 257.618 274.853C257.601 274.418 257.583 273.969 257.551 273.538C257.498 273.103 257.42 272.689 257.35 272.297C257.254 271.887 257.095 271.533 256.922 271.215C256.727 270.883 256.466 270.614 256.14 270.373C255.812 270.147 255.398 269.978 254.878 269.879V269.829C255.974 269.532 256.742 268.973 257.254 268.157C257.728 267.361 257.968 266.403 257.968 265.321C257.968 263.882 257.498 262.744 256.533 261.92C255.571 261.079 254.26 260.672 252.563 260.672H244.198V278.438H246.566V270.844H252.34C252.909 270.844 253.397 270.936 253.747 271.116C254.086 271.289 254.373 271.515 254.606 271.805C254.797 272.102 254.96 272.442 255.052 272.824C255.136 273.212 255.239 273.623 255.292 274.065C255.398 274.485 255.451 274.927 255.462 275.376ZM254.373 268.252C254.001 268.489 253.567 268.655 253.065 268.737C252.563 268.818 252.036 268.853 251.491 268.853H246.566V262.666H252.449C253.552 262.666 254.359 262.945 254.857 263.511C255.356 264.066 255.607 264.805 255.607 265.696C255.607 266.336 255.497 266.863 255.257 267.269C255.052 267.679 254.74 268.015 254.373 268.252Z" fill="#5649E6" fill-opacity="0.2"/>
<path d="M266.7 260.673L259.781 278.439H262.206L264.193 273.093H271.699L273.651 278.439H276.278L269.313 260.673H266.7ZM264.946 271.096L267.937 262.812H267.994L270.964 271.096H264.946Z" fill="#5649E6" fill-opacity="0.2"/>
<path d="M279.789 276.176C280.472 276.996 281.341 277.646 282.349 278.131C283.388 278.59 284.58 278.841 285.959 278.841C288.229 278.841 290.028 278.226 291.347 276.975C292.644 275.73 293.419 273.991 293.673 271.749H291.304C291.255 272.477 291.089 273.149 290.827 273.782C290.597 274.422 290.251 274.956 289.816 275.412C289.385 275.871 288.854 276.221 288.243 276.49C287.638 276.741 286.935 276.872 286.171 276.872C285.096 276.872 284.187 276.674 283.424 276.267C282.678 275.871 282.045 275.334 281.561 274.669C281.051 273.994 280.691 273.209 280.472 272.308C280.235 271.41 280.122 270.437 280.122 269.433C280.122 268.503 280.235 267.609 280.472 266.746C280.691 265.88 281.051 265.12 281.561 264.445C282.045 263.769 282.678 263.232 283.413 262.843C284.18 262.429 285.071 262.242 286.139 262.242C287.376 262.242 288.458 262.55 289.363 263.186C290.265 263.812 290.873 264.752 291.117 266.022H293.489C293.359 265.07 293.079 264.25 292.644 263.529C292.199 262.797 291.669 262.193 291.011 261.715C290.378 261.231 289.643 260.874 288.815 260.619C287.97 260.368 287.087 260.252 286.171 260.252C284.806 260.252 283.608 260.488 282.533 260.991C281.476 261.475 280.62 262.136 279.917 262.995C279.195 263.819 278.669 264.827 278.301 265.954C277.937 267.1 277.76 268.32 277.76 269.614C277.76 270.89 277.919 272.11 278.248 273.238C278.619 274.369 279.1 275.348 279.789 276.176Z" fill="#5649E6" fill-opacity="0.2"/>
<path d="M301.251 278.439H303.598V262.667H309.534V260.673H295.311V262.667H301.251V278.439Z" fill="#5649E6" fill-opacity="0.2"/>
<path d="M312.219 278.439H314.57V260.673H312.219V278.439Z" fill="#5649E6" fill-opacity="0.2"/>
<path d="M324.926 276.074H324.862L319.792 260.673H317.247L323.497 278.439H326.188L332.502 260.673H330.035L324.926 276.074Z" fill="#5649E6" fill-opacity="0.2"/>
<path d="M337.373 270.296H346.621V268.323H337.373V262.666H347.276V260.672H335.011V278.438H347.364V276.451H337.373V270.296Z" fill="#5649E6" fill-opacity="0.2"/>
<path d="M367.265 275.597L361.672 260.674H358.444V278.44H360.675V263.654H360.728L366.279 278.44H368.294L373.834 263.654H373.898V278.44H376.129V260.674H372.901L367.265 275.597Z" fill="#5649E6" fill-opacity="0.2"/>
<path d="M392.511 272.024C392.511 273.608 392.119 274.824 391.327 275.644C390.542 276.464 389.372 276.875 387.873 276.875C386.282 276.875 385.069 276.464 384.217 275.644C383.372 274.824 382.951 273.608 382.951 272.024V260.675H380.589V272.024C380.589 274.4 381.226 276.118 382.509 277.196C383.807 278.292 385.596 278.84 387.873 278.84C390.114 278.84 391.843 278.278 393.041 277.14C394.258 275.994 394.873 274.287 394.873 272.024V260.675H392.511V272.024Z" fill="#5649E6" fill-opacity="0.2"/>
<path d="M401.637 260.673H399.275V278.439H411.052V276.452H401.637V260.673Z" fill="#5649E6" fill-opacity="0.2"/>
<path d="M409.167 262.665H415.092V278.437H417.447V262.665H423.362V260.675H409.167V262.665Z" fill="#5649E6" fill-opacity="0.2"/>
<path d="M426.052 278.439H428.435V260.673H426.052V278.439Z" fill="#5649E6" fill-opacity="0.2"/>
<path d="M441.911 275.597L436.332 260.674H433.094V278.44H435.325V263.654H435.36L440.918 278.44H442.933L448.491 263.654H448.533V278.44H450.778V260.674H447.551L441.911 275.597Z" fill="#5649E6" fill-opacity="0.2"/>
<path d="M457.7 270.296H466.932V268.323H457.7V262.666H467.607V260.672H455.332V278.438H467.674V276.451H457.7V270.296Z" fill="#5649E6" fill-opacity="0.2"/>
<path d="M477.256 260.673H471.147V278.439H477.256C478.724 278.439 480.014 278.227 481.082 277.824C482.167 277.403 483.051 276.809 483.751 276.014C484.455 275.229 484.964 274.264 485.314 273.104C485.618 271.951 485.788 270.625 485.788 269.13C485.788 266.284 485.056 264.155 483.578 262.752C482.1 261.366 479.986 260.673 477.256 260.673ZM483.093 272.241C482.857 273.023 482.567 273.666 482.217 274.179C481.87 274.705 481.499 275.109 481.053 275.395C480.615 275.699 480.177 275.929 479.724 276.095C479.289 276.247 478.851 276.349 478.469 276.388C478.059 276.431 477.723 276.452 477.451 276.452H473.519V262.664H477.529C478.593 262.664 479.523 262.812 480.272 263.12C481.011 263.431 481.619 263.88 482.1 264.467C482.567 265.061 482.917 265.768 483.101 266.606C483.323 267.44 483.422 268.391 483.422 269.459C483.422 270.551 483.323 271.481 483.093 272.241" fill="#5649E6" fill-opacity="0.2"/>
<path d="M489.394 278.439H491.77V260.673H489.394V278.439Z" fill="#5649E6" fill-opacity="0.2"/>
<path d="M503.818 260.673H501.198L494.275 278.439H496.69L498.698 273.093H506.201L508.145 278.439H510.758L503.818 260.673ZM499.43 271.096L502.449 262.812H502.485L505.458 271.096H499.43Z" fill="#5649E6" fill-opacity="0.2"/>
<path d="M199.301 299.797C198.767 299.415 198.152 299.111 197.48 298.888C196.791 298.662 196.105 298.464 195.398 298.298C194.698 298.132 193.994 297.983 193.315 297.838C192.643 297.708 192.018 297.524 191.491 297.315C190.95 297.085 190.519 296.813 190.193 296.467C189.875 296.127 189.705 295.696 189.705 295.13C189.705 294.572 189.826 294.077 190.045 293.684C190.268 293.285 190.558 292.981 190.939 292.751C191.311 292.524 191.749 292.358 192.219 292.256C192.7 292.153 193.202 292.107 193.686 292.107C194.906 292.107 195.917 292.387 196.709 292.963C197.494 293.536 197.964 294.458 198.088 295.742H200.33C200.301 294.762 200.118 293.91 199.782 293.207C199.442 292.503 198.972 291.923 198.382 291.457C197.777 290.994 197.116 290.654 196.331 290.442C195.532 290.219 194.708 290.113 193.796 290.113C192.983 290.113 192.187 290.212 191.42 290.431C190.642 290.629 189.956 290.951 189.341 291.372C188.74 291.796 188.245 292.334 187.895 292.991C187.549 293.645 187.337 294.416 187.337 295.314C187.337 296.127 187.506 296.81 187.825 297.34C188.171 297.874 188.602 298.319 189.129 298.662C189.656 299.009 190.285 299.281 190.95 299.489C191.636 299.687 192.315 299.871 193.032 300.03C193.722 300.186 194.44 300.338 195.104 300.49C195.776 300.638 196.384 300.84 196.946 301.077C197.48 301.324 197.904 301.636 198.226 302.007C198.569 302.389 198.714 302.891 198.714 303.502C198.714 304.142 198.594 304.68 198.336 305.093C198.06 305.51 197.713 305.843 197.264 306.076C196.837 306.317 196.356 306.486 195.822 306.589C195.267 306.695 194.733 306.737 194.22 306.737C193.552 306.737 192.895 306.656 192.258 306.486C191.646 306.32 191.098 306.069 190.618 305.715C190.151 305.38 189.766 304.931 189.479 304.393C189.165 303.849 189.044 303.202 189.044 302.456H186.799C186.799 303.527 187.004 304.478 187.376 305.252C187.768 306.044 188.288 306.695 188.977 307.204C189.635 307.699 190.427 308.084 191.311 308.332C192.187 308.572 193.128 308.699 194.121 308.699C194.952 308.699 195.758 308.593 196.589 308.417C197.402 308.222 198.152 307.925 198.809 307.497C199.478 307.077 200.011 306.522 200.446 305.853C200.864 305.175 201.086 304.376 201.086 303.428C201.086 302.548 200.906 301.816 200.598 301.236C200.266 300.66 199.849 300.172 199.301 299.797Z" fill="#5649E6" fill-opacity="0.2"/>
<path d="M218.439 292.952C217.735 292.089 216.834 291.4 215.777 290.887C214.723 290.371 213.486 290.113 212.064 290.113C210.671 290.113 209.441 290.371 208.377 290.887C207.309 291.4 206.415 292.089 205.715 292.952C204.99 293.811 204.467 294.797 204.081 295.929C203.752 297.042 203.576 298.213 203.576 299.425C203.576 300.62 203.752 301.787 204.081 302.911C204.467 304.046 204.99 305.033 205.715 305.892C206.415 306.765 207.309 307.433 208.377 307.942C209.441 308.451 210.671 308.699 212.064 308.699C213.486 308.699 214.723 308.451 215.777 307.942C216.834 307.433 217.735 306.765 218.439 305.892C219.16 305.033 219.69 304.046 220.055 302.911C220.415 301.787 220.603 300.62 220.603 299.425C220.603 298.213 220.415 297.042 220.055 295.929C219.69 294.797 219.16 293.811 218.439 292.952ZM217.887 302.077C217.64 302.943 217.276 303.725 216.777 304.428C216.279 305.125 215.621 305.673 214.875 306.107C214.073 306.521 213.143 306.737 212.064 306.737C211 306.737 210.067 306.521 209.289 306.107C208.518 305.673 207.889 305.125 207.387 304.428C206.871 303.725 206.521 302.943 206.28 302.077C206.047 301.211 205.916 300.316 205.916 299.425C205.916 298.513 206.047 297.64 206.28 296.781C206.521 295.897 206.871 295.123 207.387 294.423C207.889 293.712 208.518 293.16 209.289 292.743C210.067 292.308 211 292.107 212.064 292.107C213.143 292.107 214.073 292.308 214.875 292.743C215.621 293.16 216.279 293.712 216.777 294.423C217.276 295.123 217.64 295.897 217.887 296.781C218.124 297.64 218.234 298.513 218.234 299.425C218.234 300.316 218.124 301.211 217.887 302.077" fill="#5649E6" fill-opacity="0.2"/>
<path d="M226.47 290.525H224.09V308.301H235.864V306.314H226.47V290.525Z" fill="#5649E6" fill-opacity="0.2"/>
<path d="M250.372 301.884C250.372 303.482 250.005 304.68 249.206 305.511C248.41 306.328 247.275 306.742 245.727 306.742C244.171 306.742 242.934 306.328 242.106 305.511C241.247 304.68 240.816 303.482 240.816 301.884V290.524H238.458V301.884C238.458 304.26 239.108 305.989 240.395 307.078C241.678 308.163 243.464 308.697 245.727 308.697C247.986 308.697 249.722 308.138 250.949 306.996C252.126 305.854 252.741 304.15 252.741 301.884V290.524H250.372V301.884Z" fill="#5649E6" fill-opacity="0.2"/>
<path d="M255.248 292.532H261.177V308.301H263.539V292.532H269.464V290.524H255.248V292.532Z" fill="#5649E6" fill-opacity="0.2"/>
<path d="M272.151 308.303H274.523V290.52H272.151V308.303Z" fill="#5649E6" fill-opacity="0.2"/>
<path d="M293.002 292.952C292.285 292.089 291.408 291.4 290.358 290.887C289.28 290.371 288.056 290.113 286.642 290.113C285.228 290.113 284.008 290.371 282.933 290.887C281.88 291.4 280.982 292.089 280.264 292.952C279.56 293.811 279.016 294.797 278.666 295.929C278.302 297.042 278.132 298.213 278.132 299.425C278.132 300.62 278.302 301.787 278.666 302.911C279.016 304.046 279.56 305.033 280.264 305.892C280.982 306.765 281.88 307.433 282.933 307.942C284.008 308.451 285.228 308.699 286.642 308.699C288.056 308.699 289.28 308.451 290.358 307.942C291.408 307.433 292.285 306.765 293.002 305.892C293.724 305.033 294.261 304.046 294.608 302.911C294.965 301.787 295.145 300.62 295.145 299.425C295.145 298.213 294.965 297.042 294.608 295.929C294.261 294.797 293.724 293.811 293.002 292.952ZM292.437 302.077C292.196 302.943 291.839 303.725 291.344 304.428C290.828 305.125 290.195 305.673 289.442 306.107C288.64 306.521 287.72 306.737 286.642 306.737C285.557 306.737 284.623 306.521 283.856 306.107C283.089 305.673 282.442 305.125 281.929 304.428C281.438 303.725 281.067 302.943 280.847 302.077C280.621 301.211 280.504 300.316 280.504 299.425C280.504 298.513 280.621 297.64 280.847 296.781C281.067 295.897 281.438 295.123 281.929 294.423C282.442 293.712 283.089 293.16 283.856 292.743C284.623 292.308 285.557 292.107 286.642 292.107C287.72 292.107 288.64 292.308 289.442 292.743C290.195 293.16 290.828 293.712 291.344 294.423C291.839 295.123 292.196 295.897 292.437 296.781C292.663 297.64 292.783 298.513 292.783 299.425C292.783 300.316 292.663 301.211 292.437 302.077" fill="#5649E6" fill-opacity="0.2"/>
<path d="M310.566 304.943H310.502L301.144 290.525H298.626V308.302H300.875V294.05H300.917L310.209 308.302H312.79V290.525H310.566V304.943Z" fill="#5649E6" fill-opacity="0.2"/>
<path d="M328.741 299.797C328.2 299.415 327.592 299.111 326.895 298.888C326.231 298.662 325.531 298.464 324.838 298.298C324.127 298.132 323.423 297.983 322.759 297.838C322.08 297.708 321.461 297.524 320.927 297.315C320.376 297.085 319.948 296.813 319.619 296.467C319.312 296.127 319.149 295.696 319.149 295.13C319.149 294.572 319.251 294.077 319.478 293.684C319.711 293.285 319.997 292.981 320.376 292.751C320.74 292.524 321.185 292.358 321.652 292.256C322.158 292.153 322.628 292.107 323.126 292.107C324.357 292.107 325.368 292.387 326.16 292.963C326.931 293.536 327.383 294.458 327.546 295.742H329.78C329.731 294.762 329.561 293.91 329.211 293.207C328.868 292.503 328.412 291.923 327.825 291.457C327.221 290.994 326.538 290.654 325.767 290.442C324.979 290.219 324.127 290.113 323.222 290.113C322.412 290.113 321.61 290.212 320.85 290.431C320.089 290.629 319.375 290.951 318.785 291.372C318.177 291.796 317.696 292.334 317.318 292.991C316.953 293.645 316.787 294.416 316.787 295.314C316.787 296.127 316.95 296.81 317.254 297.34C317.579 297.874 318.021 298.319 318.555 298.662C319.092 299.009 319.711 299.281 320.376 299.489C321.069 299.687 321.762 299.871 322.479 300.03C323.165 300.186 323.865 300.338 324.548 300.49C325.241 300.638 325.835 300.84 326.365 301.077C326.924 301.324 327.341 301.636 327.67 302.007C327.988 302.389 328.147 302.891 328.147 303.502C328.147 304.142 328.012 304.68 327.751 305.093C327.5 305.51 327.136 305.843 326.722 306.076C326.269 306.317 325.785 306.486 325.241 306.589C324.71 306.695 324.176 306.737 323.65 306.737C322.978 306.737 322.338 306.656 321.702 306.486C321.076 306.32 320.524 306.069 320.054 305.715C319.594 305.38 319.206 304.931 318.905 304.393C318.608 303.849 318.47 303.202 318.47 302.456H316.225C316.225 303.527 316.427 304.478 316.826 305.252C317.197 306.044 317.742 306.695 318.424 307.204C319.075 307.699 319.86 308.084 320.74 308.332C321.642 308.572 322.564 308.699 323.565 308.699C324.389 308.699 325.216 308.593 326.029 308.417C326.839 308.222 327.592 307.925 328.249 307.497C328.907 307.077 329.466 306.522 329.876 305.853C330.314 305.175 330.526 304.376 330.526 303.428C330.526 302.548 330.342 301.816 330.035 301.236C329.706 300.66 329.268 300.172 328.741 299.797Z" fill="#5649E6" fill-opacity="0.2"/>
<path d="M0 -0.00016564C0 -0.00016564 0.756602 59.8525 46.2056 104.198C91.6476 148.527 151.511 147.788 151.511 147.788C151.511 147.788 99.3302 140.71 53.8812 96.3779C8.41098 52.0426 0 -0.00016564 0 -0.00016564Z" fill="#5649E6" fill-opacity="0.2"/>
<path d="M79.6561 274.786C79.6561 274.786 37.8734 231.925 38.6619 168.42C39.4468 104.936 82.2972 63.1359 82.2972 63.1359C82.2972 63.1359 50.3962 105.042 49.5972 168.526C48.8053 232.038 79.6561 274.786 79.6561 274.786Z" fill="#5649E6" fill-opacity="0.2"/>
<path d="M0 337.906C0 337.906 0.756602 278.049 46.2056 233.71C91.6476 189.375 151.511 190.121 151.511 190.121C151.511 190.121 99.3302 197.189 53.8812 241.524C8.41098 285.877 0 337.906 0 337.906Z" fill="#5649E6" fill-opacity="0.2"/>
</svg>
