<svg width="352" height="42" viewBox="0 0 352 42" fill="none" xmlns="http://www.w3.org/2000/svg">
<path d="M351.496 41.574H0V-2.28882e-05H351.496V41.574Z" fill="#C7C5E4"/>
<path d="M11.3229 8.2162H19.8234C24.9254 8.2162 28.2838 11.0834 28.2838 16.2595C28.2838 20.8047 24.9609 24.5861 18.003 24.5861H16.6729V21.5423H18.2136C22.0593 21.5423 24.3672 19.8615 24.3672 16.4006C24.3672 13.0079 22.7578 11.2246 19.0516 11.2246H15.0989V32.9397H11.3229V8.2162Z" fill="white"/>
<path d="M44.465 21.4011L41.0379 10.7329L37.1583 21.4011H44.465ZM38.6625 8.2162H43.663L52.4046 32.9397H48.453L45.4478 24.3027H36.0745L32.7171 32.9397H28.9385L38.6625 8.2162Z" fill="white"/>
<path d="M72.2234 29.9319V11.1178H65.3697C64.8073 18.111 64.0396 22.3115 63.5838 24.0219C63.0254 25.9465 62.4656 27.4877 61.3458 29.9319H72.2234ZM54.9453 29.9319H57.1854C58.4088 27.7642 59.4218 25.3538 59.9828 23.6377C60.753 21.2271 61.6265 15.7683 62.0469 8.21621H75.9666V29.9319H79.3224V38.2913H75.7193V32.9397H58.5844V38.2913H54.9453V29.9319Z" fill="white"/>
<path d="M85.9896 8.2162H89.7323V24.3027L89.6287 27.9047L91.8318 24.2699L102.812 8.2162H106.588V32.9397H102.812V16.8538L102.919 13.2511L101.203 16.0173L89.7323 32.9397H85.9896V8.2162Z" fill="white"/>
<path d="M135.148 20.5609C135.148 15.0688 132.14 10.9084 126.373 10.9084C120.355 10.9084 117.487 15.0688 117.487 20.4928C117.487 25.7713 120.25 30.2818 126.125 30.2818C132.386 30.2818 135.148 26.0532 135.148 20.5609ZM113.711 20.5267C113.711 12.5177 118.853 7.8656 126.685 7.8656C134.939 7.8656 138.961 13.1828 138.961 20.5953C138.961 28.3959 134.204 33.3625 126.021 33.3625C118.046 33.3625 113.711 28.1865 113.711 20.5267Z" fill="white"/>
<path d="M145.241 8.2162H151.188V18.8121L159.652 8.2162H167.239L157.237 19.7934L167.797 32.9397H160.211L151.188 20.5267V32.9397H145.241V8.2162Z" fill="white"/>
<path d="M175.308 28.5699C177.965 27.7298 179.119 27.3809 179.96 25.7714L180.377 24.9694H178.664L169.817 8.21622H176.46L182.404 20.4929L186.672 8.21622H193.423L185.555 25.3538C182.511 31.9626 180.447 32.2408 176.881 33.2559L175.308 28.5699Z" fill="white"/>
<path d="M192.817 28.6053C194.6 27.871 197.084 26.821 197.993 25.0033C199.113 22.7631 199.672 16.7506 199.917 8.2162H216.04V32.9397H210.095V12.4834H204.848C204.044 22.0293 203.764 25.9809 202.189 28.6725C200.651 31.2975 197.888 32.6637 195.265 33.7131L192.817 28.6053Z" fill="white"/>
<path d="M229.177 20.4929V28.2897H231.204C234.913 28.2897 236.24 26.5063 236.24 24.2355C236.24 21.961 234.913 20.4929 231.204 20.4929H229.177ZM223.161 8.2162H229.177V15.9105H230.996C238.375 15.9105 242.36 18.9533 242.36 24.2355C242.36 29.5142 238.375 32.9397 230.996 32.9397H223.161V8.2162Z" fill="white"/>
<path d="M250.256 12.8667H242.491V8.2162H263.965V12.8667H256.2V32.9397H250.256V12.8667Z" fill="white"/>
<path d="M272.735 28.5699C275.391 27.7298 276.544 27.3809 277.385 25.7714L277.803 24.9694H276.091L267.241 8.21622H273.887L279.829 20.4929L284.097 8.21622H290.849L282.979 25.3538C279.936 31.9626 277.873 32.2408 274.305 33.2559L272.735 28.5699Z" fill="white"/>
<path d="M301.293 21.3683H303.32C307.029 21.3683 308.357 19.4429 308.357 17.1339C308.357 14.6511 307.343 12.8667 304.163 12.8667H301.293V21.3683ZM295.312 8.2162H304.932C310.491 8.2162 314.476 11.4678 314.476 16.9943C314.476 21.8543 310.491 25.9465 303.112 25.9465H301.293V32.9397H295.312V8.2162Z" fill="white"/>
<path d="M330.276 21.4011L327.795 11.8907L324.891 21.4011H330.276ZM324.191 8.2162H331.848L340.173 32.9397H334.019L331.673 25.7027H323.317L320.624 32.9397H314.679L324.191 8.2162Z" fill="white"/>
</svg>
