<svg width="522" height="96" viewBox="0 0 522 96" fill="none" xmlns="http://www.w3.org/2000/svg">
<path d="M10.1882 1.76526V83.8433H35.4372V93.5515H0V1.76526H10.1882Z" fill="#5649E6" fill-opacity="0.2"/>
<path d="M81.9486 48.0995C81.9486 20.7402 103.654 0.441284 129.789 0.441284C155.924 0.441284 177.629 20.7402 177.629 48.0995C177.629 75.4589 156.367 95.7577 129.789 95.7577C103.211 95.3165 81.9486 75.0176 81.9486 48.0995ZM92.5798 48.0995C92.5798 69.2809 109.412 86.0496 129.789 86.0496C150.608 86.0496 166.998 69.2809 166.998 48.0995C166.998 26.9181 150.165 10.1494 129.789 10.1494C109.412 10.1494 92.5798 26.9181 92.5798 48.0995Z" fill="#5649E6" fill-opacity="0.2"/>
<path d="M284.827 47.6582H323.365V49.8646C323.365 60.0141 320.264 71.0461 314.506 78.9891C311.848 82.5193 301.217 95.3165 280.397 95.3165C252.933 95.3165 232.557 74.5763 232.557 47.6582C232.557 21.1814 252.933 0 280.397 0C289.256 0 299.445 2.2064 308.747 9.26688C312.734 12.3558 316.72 16.7686 319.378 20.2989L311.848 27.3594C309.19 23.8291 306.089 20.2989 302.988 18.0925C298.559 14.5622 291.471 10.5907 280.84 10.5907C258.692 10.5907 243.188 27.3594 243.188 48.5408C243.188 73.6937 263.122 86.0496 280.397 86.0496C292.8 86.0496 303.431 79.8717 308.747 70.6048C310.519 67.5158 312.291 63.103 312.291 57.3664H284.827V47.6582Z" fill="#5649E6" fill-opacity="0.2"/>
<path d="M391.138 1.76526V93.5515H380.95V1.76526H391.138Z" fill="#5649E6" fill-opacity="0.2"/>
<path d="M521.813 22.0639C518.713 18.9749 514.283 15.886 509.853 13.6796C504.981 11.4732 499.222 10.1493 493.906 10.1493C472.644 10.1493 456.697 27.3592 456.697 48.5407C456.697 73.2523 477.074 86.0494 493.906 86.0494C500.108 86.0494 506.309 84.2843 511.182 81.6366C516.498 78.989 520.041 75.4587 521.813 74.1349V86.932C511.625 94.4338 500.994 95.7576 493.906 95.7576C466.443 95.7576 446.066 75.0174 446.066 48.5407C446.066 21.1813 466.443 0.882446 494.349 0.882446C499.665 0.882446 510.296 1.76501 521.37 10.1493V22.0639H521.813Z" fill="#5649E6" fill-opacity="0.2"/>
</svg>
