<svg width="500" height="254" viewBox="0 0 500 254" fill="none" xmlns="http://www.w3.org/2000/svg">
<path fill-rule="evenodd" clip-rule="evenodd" d="M133.66 115.981L191.652 57.9893V114.988L133.662 172.976L133.66 172.974V115.981Z" fill="#5649E6" fill-opacity="0.2"/>
<path d="M249.394 172.374V116.085L191.902 58.5928V114.884L249.394 172.374Z" fill="#5649E6" fill-opacity="0.2" stroke="white" stroke-width="0.5"/>
<mask id="path-3-inside-1" fill="white">
<path fill-rule="evenodd" clip-rule="evenodd" d="M249.644 115.981L307.638 57.9893V114.988L249.646 172.976L249.644 172.974V115.981"/>
</mask>
<path fill-rule="evenodd" clip-rule="evenodd" d="M249.644 115.981L307.638 57.9893V114.988L249.646 172.976L249.644 172.974V115.981" fill="#5649E6" fill-opacity="0.2"/>
<path d="M307.638 57.9893L307.284 57.6357L308.138 56.7822V57.9893H307.638ZM307.638 114.988H308.138V115.195L307.991 115.342L307.638 114.988ZM249.646 172.976L249.999 173.33L249.613 173.716L249.262 173.297L249.646 172.976ZM249.644 172.974L249.261 173.295L249.144 173.156V172.974H249.644ZM249.291 115.628L307.284 57.6357L307.991 58.3428L249.998 116.335L249.291 115.628ZM308.138 57.9893V114.988H307.138V57.9893H308.138ZM307.991 115.342L249.999 173.33L249.292 172.623L307.284 114.634L307.991 115.342ZM249.262 173.297L249.261 173.295L250.028 172.654L250.029 172.655L249.262 173.297ZM249.144 172.974V115.981H250.144V172.974H249.144Z" fill="white" mask="url(#path-3-inside-1)"/>
<path fill-rule="evenodd" clip-rule="evenodd" d="M365.628 115.981L307.638 57.9893V114.988L365.628 172.976V172.974V115.981Z" fill="#5649E6" fill-opacity="0.2"/>
<path fill-rule="evenodd" clip-rule="evenodd" d="M307.636 114.988H307.638H307.636ZM249.644 56.9947L279.138 86.488L307.636 57.9894L249.646 5.56819e-05L249.644 0.00139032V56.9947" fill="#5649E6" fill-opacity="0.2"/>
<path d="M195.658 214.143V253.228H202.994V214.143H195.658ZM141.691 221.144H142.653C143.315 221.144 144.057 221.157 144.854 221.212C145.639 221.267 146.466 221.363 147.306 221.532C148.126 221.696 148.961 221.929 149.775 222.256C150.599 222.585 151.411 223.013 152.182 223.568C152.877 224.076 153.542 224.713 154.142 225.465C154.706 226.174 155.218 226.992 155.647 227.905C156.049 228.764 156.374 229.703 156.59 230.707C156.794 231.651 156.907 232.657 156.907 233.712C156.907 234.76 156.797 235.74 156.598 236.652C156.382 237.633 156.062 238.539 155.667 239.363C155.235 240.267 154.715 241.07 154.15 241.769C153.517 242.552 152.825 243.21 152.129 243.74L152.121 243.745C151.355 244.313 150.551 244.751 149.738 245.089C148.93 245.424 148.106 245.664 147.294 245.833C146.466 246.004 145.646 246.101 144.863 246.157C144.071 246.212 143.326 246.227 142.653 246.227H140.985V221.144H141.691ZM133.645 214.143V253.228H142.203C143.539 253.228 144.806 253.193 146.023 253.095C147.238 252.995 148.41 252.828 149.554 252.565C150.719 252.297 151.854 251.931 152.978 251.431C154.102 250.932 155.226 250.293 156.375 249.484C157.65 248.587 158.774 247.567 159.743 246.446C160.725 245.31 161.553 244.063 162.221 242.724C162.891 241.375 163.398 239.941 163.737 238.44C164.074 236.939 164.246 235.355 164.246 233.712C164.246 232.109 164.077 230.557 163.753 229.074C163.422 227.569 162.931 226.133 162.293 224.791C161.649 223.437 160.853 222.174 159.915 221.024C158.989 219.885 157.919 218.853 156.721 217.952C155.635 217.143 154.523 216.501 153.385 215.993C152.242 215.484 151.067 215.107 149.858 214.833C148.674 214.564 147.454 214.391 146.198 214.285C144.942 214.179 143.65 214.143 142.315 214.143H133.645V214.143ZM100.908 214.143H78.6229V253.228H100.908V246.227H85.9604V235.47H100.458V228.47H85.9604V221.144H100.908V214.143V214.143ZM291.907 214.143H291.178V221.144H301.213V253.228H308.551V221.144H318.586V214.143H291.907ZM472.491 214.143H471.836V221.144H481.796V253.228H489.135V221.144H499.246V214.143H472.491V214.143ZM0 253.229L8.78803 214.212L22.5063 239.203L36.2235 214.205L45.0125 253.229H37.3161L33.0068 234.095L22.5036 253.229L12.0068 234.095L7.69636 253.229H0ZM244.955 239.509L249.669 230.532L255.331 241.425H243.951L244.955 239.509V239.509ZM261.47 253.225H269.938L249.647 214.208L229.275 253.225H237.778L240.617 248.01H258.76L261.47 253.225V253.225ZM360.918 239.509L365.632 230.532L371.295 241.425H359.914L360.918 239.509ZM377.432 253.225H385.902L365.61 214.208L345.238 253.225H353.742L356.579 248.01H374.723L377.432 253.225ZM439.339 215.003C436.958 214.013 434.346 213.468 431.609 213.468C428.873 213.468 426.263 214.013 423.882 215C421.41 216.025 419.181 217.527 417.313 219.392L417.294 219.409C415.427 221.281 413.922 223.51 412.895 225.988C411.907 228.368 411.363 230.977 411.363 233.715C411.363 236.452 411.91 239.064 412.896 241.444C413.924 243.921 415.432 246.155 417.3 248.024L417.677 248.4C419.465 250.097 421.558 251.472 423.866 252.428C426.251 253.415 428.865 253.96 431.609 253.96C434.354 253.96 436.969 253.416 439.349 252.428C441.611 251.491 443.668 250.152 445.432 248.503L440.43 243.499C439.323 244.497 438.045 245.31 436.646 245.889C435.091 246.533 433.389 246.891 431.609 246.891C429.829 246.891 428.127 246.533 426.573 245.889C425.049 245.258 423.671 244.353 422.503 243.236H422.488L422.282 243.029C421.071 241.82 420.095 240.369 419.43 238.756C418.787 237.201 418.432 235.498 418.432 233.715C418.432 231.931 418.787 230.227 419.43 228.672C420.095 227.058 421.071 225.609 422.281 224.397L422.291 224.384C423.503 223.176 424.952 222.2 426.566 221.534C428.12 220.893 429.825 220.539 431.609 220.539C433.391 220.539 435.098 220.893 436.652 221.534C438.044 222.11 439.318 222.916 440.418 223.904L445.409 218.912C443.649 217.27 441.595 215.937 439.339 215.003" fill="#5649E6" fill-opacity="0.2"/>
</svg>
