<svg width="566" height="87" viewBox="0 0 566 87" fill="none" xmlns="http://www.w3.org/2000/svg">
<path d="M559.257 76.3835C554.703 81.159 549.541 84.0065 543.065 85.3067C538.693 86.1884 534.866 86.3737 530.422 85.9139C524.534 85.3101 519.674 83.4233 514.935 79.8862C511.059 77.0044 508.284 73.8859 505.859 69.7073C503.988 66.4722 502.898 63.4463 502.293 59.7617C501.443 54.65 501.667 50.1523 503.015 45.1538C506.096 33.7845 514.67 25.7257 526.226 23.3277C532.826 21.9588 538.693 22.0995 545.218 23.7805C549.864 24.9778 553.554 26.9951 557.069 30.2577C559.287 32.3092 560.863 34.3711 562.259 37.0402C563.913 40.1964 564.58 43.2635 564.391 46.8177H543.78C543.333 44.0628 542.009 41.8672 539.784 40.1793C536.902 37.9871 533.184 37.8121 530.102 39.7127C527.997 41.0198 526.615 42.7969 525.868 45.1538C524.094 50.7698 524.015 55.9948 525.597 61.6658C526.271 64.0501 527.402 65.9198 529.211 67.6214C531.272 69.5838 533.841 70.39 536.661 69.9749C538.408 69.721 539.828 68.9594 541.005 67.6386C542.239 66.2766 542.944 64.8151 543.268 63.0072C543.495 61.7344 543.622 60.6571 543.691 59.3672H565.42C565.853 65.9027 563.776 71.6422 559.257 76.3835Z" fill="#5649E6" fill-opacity="0.2"/>
<path d="M476.182 15.8913H498.724V0.00699425H476.182V15.8913Z" fill="#5649E6" fill-opacity="0.2"/>
<path d="M476.182 84.1863H498.724V24.0559H476.182V84.1863Z" fill="#5649E6" fill-opacity="0.2"/>
<path d="M429.489 30.4022C432.453 27.8155 435.28 25.9904 438.857 24.3402C444.68 21.6574 450.502 21.2217 456.662 23.0159C463.269 24.9474 468.029 29.5823 470.113 36.1315C471.114 39.2775 471.547 42.0701 471.547 45.3704V84.1785H447.606V49.278C447.606 48.1115 447.465 47.1235 447.115 46.0051C446.502 44.0015 445.175 42.5263 443.235 41.7098C438.991 39.9121 434.166 41.504 431.838 45.4699C430.864 47.1235 430.421 48.7531 430.421 50.6742V84.1785H407.233V24.0452H428.986L429.489 30.4022Z" fill="#5649E6" fill-opacity="0.2"/>
<path d="M162.881 30.4022C165.846 27.8155 168.673 25.9904 172.243 24.3402C178.069 21.6574 183.895 21.2217 190.051 23.0159C196.661 24.9474 201.421 29.5823 203.505 36.1315C204.506 39.2775 204.94 42.0701 204.94 45.3704V84.1785H180.999V49.278C180.999 48.1115 180.851 47.1235 180.511 46.0051C179.892 44.0015 178.564 42.5263 176.621 41.7098C172.38 39.9121 167.555 41.504 165.23 45.4699C164.254 47.1235 163.81 48.7531 163.81 50.6742V84.1785H140.626V24.0452H162.376L162.881 30.4022Z" fill="#5649E6" fill-opacity="0.2"/>
<path d="M304.961 62.0774C306.687 62.369 308.132 62.7292 309.79 63.2815C311.176 63.7344 312.128 64.8048 312.431 66.2217C312.761 67.7689 312.324 69.2372 311.21 70.3522C310.078 71.4946 308.789 72.1533 307.2 72.4004C305.074 72.74 303.19 72.565 301.164 71.8309C300.184 71.4809 299.407 71.0384 298.602 70.3762C297.567 69.5048 296.899 68.5065 296.497 67.2166C296.16 66.1222 296.026 65.1547 296.046 64.0089H273.97V65.2919C273.97 67.3641 274.293 69.1206 275.022 71.0589C276.13 73.975 277.647 76.229 279.937 78.356C282.926 81.1452 286.045 82.8846 289.976 84.0064C298.137 86.3256 305.487 86.7853 313.875 85.5022C317.81 84.9018 321.056 83.8452 324.595 82.0166C326.153 81.2104 327.402 80.3767 328.747 79.2515C334.71 74.2564 336.922 66.6333 334.538 59.2402C333.637 56.4545 332.213 54.3068 329.995 52.3856C326.955 49.7577 323.877 48.0835 320.011 46.9583C319.165 46.7147 318.443 46.5089 317.59 46.2756C312.861 44.965 308.799 44.1005 303.943 43.3801C302.643 43.1879 301.549 42.9787 300.266 42.6802C299.675 42.5395 299.183 42.3749 298.633 42.1244C297.274 41.5138 296.672 39.9185 297.285 38.5668C297.319 38.4947 297.35 38.4296 297.388 38.3609C298.117 37.0607 299.197 36.2133 300.621 35.7982C303.142 35.0709 305.463 35.1327 307.936 35.9732C310.309 36.7794 311.798 38.951 311.695 41.452H332.967C332.946 38.8447 332.547 36.6422 331.666 34.1926C330.765 31.7088 329.397 29.8185 327.316 28.1821C325.507 26.748 323.791 25.7737 321.634 24.94C319.536 24.127 317.686 23.6192 315.468 23.2316C310.195 22.3259 305.659 22.0617 300.321 22.3773C297.271 22.5523 294.698 22.9297 291.713 23.6261C287.696 24.5695 284.46 26.1168 281.213 28.6555C278.455 30.8134 276.649 33.335 275.494 36.6353C274.967 38.1311 274.716 39.4588 274.648 41.0335C274.527 43.6717 274.909 45.9188 275.889 48.3717C277.643 52.763 280.759 55.8747 285.168 57.6278C287.4 58.5163 289.357 59.0995 291.713 59.5798C296.356 60.537 300.287 61.2815 304.961 62.0774Z" fill="#5649E6" fill-opacity="0.2"/>
<path d="M41.0781 58.2533H25.6085V38.5234H35.6613C37.5701 38.5234 39.1865 38.4788 41.0953 38.3724C43.7401 38.2283 45.9377 37.0482 47.5129 34.9246C48.3486 33.7959 48.8198 32.6569 49.0193 31.264C49.1844 30.0907 49.2085 29.0889 49.0915 27.9156C48.6616 23.5243 45.016 20.2309 40.5966 20.2309H25.6085V84.1826H0V3.8147e-05H41.8588C43.5234 3.8147e-05 44.9301 0.0309143 46.5912 0.123543C57.6965 0.717049 66.8448 6.86829 71.5497 16.9202C73.9984 22.1521 74.8307 27.1815 74.2013 32.9245C72.8738 45.0143 64.3961 54.4178 52.486 57.0217C48.5378 57.8862 45.1192 58.2533 41.0781 58.2533Z" fill="#5649E6" fill-opacity="0.2"/>
<path d="M377.267 22.8998C374.884 22.5224 372.848 22.368 370.437 22.368C368.022 22.368 365.99 22.5224 363.603 22.8998C356.683 23.9805 351.077 26.7559 346.025 31.5932C340.619 36.777 337.657 42.9111 336.98 50.3591C336.567 54.9322 336.922 58.8741 338.156 63.2963C340.048 70.0822 343.6 75.3243 349.206 79.6058C352.897 82.4362 356.566 84.1309 361.113 85.119C364.342 85.8257 367.132 86.1173 370.437 86.1173C373.738 86.1173 376.531 85.8257 379.764 85.119C384.307 84.1309 387.977 82.4362 391.667 79.6058L378.715 65.5262C376.655 70.0891 371.29 72.1235 366.712 70.0685C364.604 69.1216 363.108 67.6327 362.155 65.5262C361.278 63.581 360.766 61.8382 360.449 59.7249C359.81 55.5017 359.882 51.8343 360.711 47.6386C361.134 45.4601 361.863 43.683 363.08 41.827C365.742 37.7753 371.19 36.6432 375.258 39.2951C376.321 39.9915 377.098 40.7669 377.79 41.827C379.011 43.683 379.74 45.4601 380.163 47.6386C380.981 51.8343 381.064 55.5017 380.424 59.7249C380.104 61.8382 379.592 63.581 378.715 65.5262L391.667 79.6058C397.276 75.3243 400.829 70.0822 402.717 63.2963C403.952 58.8741 404.303 54.9322 403.893 50.3591C403.216 42.9111 400.262 36.777 394.852 31.5932C389.796 26.749 384.194 23.9805 377.267 22.8998Z" fill="#5649E6" fill-opacity="0.2"/>
<path d="M271.497 79.4712C271.16 74.5173 270.971 70.3216 270.871 65.3505C270.74 58.8184 270.661 53.3087 270.617 46.7801C270.589 43.2568 270.2 40.2823 269.317 36.8722C268.158 32.402 265.533 29.0056 261.492 26.7482C259.051 25.3862 256.812 24.5492 254.081 23.9591C245.386 22.1031 237.714 21.9487 228.954 23.465C226.491 23.8905 224.455 24.4805 222.144 25.4343C216.807 27.6368 213.13 31.6507 211.417 37.1501C210.76 39.2531 210.585 41.1606 210.836 43.3528C210.884 43.7542 210.984 44.0939 211.166 44.4609L231.451 44.955C231.399 43.665 231.568 42.5741 232.004 41.363C232.668 39.5173 233.975 38.2068 235.825 37.5344C238.546 36.536 241.167 36.4983 243.925 37.3971C245.737 37.9906 247.024 39.2943 247.588 41.1091C247.942 42.2447 247.766 43.3631 247.079 44.334C246.48 45.1917 245.741 45.768 244.761 46.142C244.155 46.3718 243.639 46.5399 243.02 46.7046C240.2 47.4628 237.793 47.9843 234.914 48.4611C232.634 48.8351 230.715 49.1884 228.455 49.6482C225.384 50.2554 222.818 50.9278 219.843 51.8884C217.119 52.7667 214.973 54.0154 212.869 55.9469C210.131 58.4445 208.566 61.4052 208.043 65.0795C207.699 67.529 207.779 69.6629 208.322 72.0746C209.742 78.346 214.107 82.9843 220.301 84.782C227.165 86.7683 233.607 86.4424 240.235 83.7733C243.461 82.48 245.916 80.6857 248.134 78.0166L246.704 67.6799C245.682 69.258 244.413 70.3353 242.697 71.09C241.087 71.8002 239.633 72.1741 237.882 72.3525C236.424 72.4966 235.158 72.3903 233.745 71.9957C232.596 71.6801 231.698 71.1449 230.883 70.2804C230.195 69.5394 229.786 68.7434 229.576 67.7554C229.257 66.239 229.755 64.781 230.942 63.7758C231.736 63.0999 232.513 62.6471 233.487 62.2903C235.843 61.4258 237.855 60.7774 240.265 60.0946C243.182 59.2747 245.596 58.3862 248.348 57.1237C248.619 59.3227 248.606 61.2062 248.3 63.395C248.076 65.0005 247.588 66.3214 246.704 67.6799L248.134 78.0166C248.578 79.485 248.987 80.7132 249.489 82.1506C249.775 82.9568 250.146 83.5812 250.71 84.209H273.055C272.102 82.7167 271.617 81.2415 271.497 79.4712Z" fill="#5649E6" fill-opacity="0.2"/>
<path d="M136.164 79.4712C135.827 74.5173 135.638 70.3216 135.538 65.3505C135.404 58.8184 135.328 53.3087 135.284 46.7801C135.259 43.2568 134.871 40.2823 133.984 36.8722C132.825 32.402 130.204 29.0056 126.159 26.7482C123.717 25.3862 121.479 24.5492 118.748 23.9591C110.053 22.1031 102.38 21.9487 93.6173 23.465C91.1617 23.8905 89.1188 24.4805 86.8111 25.4343C81.4734 27.6368 77.7969 31.6507 76.0842 37.1501C75.4307 39.2531 75.2519 41.1606 75.5064 43.3528C75.5511 43.7542 75.6508 44.0939 75.8331 44.4609L96.1176 44.955C96.0695 43.665 96.2346 42.5741 96.6714 41.363C97.3351 39.5173 98.642 38.2068 100.492 37.5344C103.216 36.536 105.833 36.4983 108.588 37.3971C110.404 37.9906 111.694 39.2943 112.261 41.1091C112.609 42.2447 112.433 43.3631 111.745 44.334C111.144 45.1917 110.404 45.768 109.427 46.142C108.822 46.3718 108.306 46.5399 107.684 46.7046C104.867 47.4628 102.456 47.9843 99.5809 48.4611C97.3042 48.8351 95.3817 49.1884 93.1186 49.6482C90.0509 50.2554 87.4886 50.9278 84.5068 51.8884C81.7898 52.7667 79.6438 54.0154 77.5355 55.9469C74.7979 58.4445 73.2365 61.4052 72.7103 65.0795C72.3629 67.529 72.4455 69.6629 72.9923 72.0746C74.4058 78.346 78.7771 82.9843 84.9642 84.782C91.8358 86.7683 98.2706 86.4424 104.901 83.7733C108.124 82.48 110.586 80.6857 112.805 78.0166L111.374 67.6799C110.353 69.258 109.08 70.3353 107.36 71.09C105.754 71.8002 104.296 72.1741 102.552 72.3525C101.087 72.4966 99.8286 72.3903 98.4116 71.9957C97.2629 71.6801 96.3653 71.1449 95.5536 70.2804C94.8623 69.5394 94.4531 68.7434 94.2433 67.7554C93.9269 66.239 94.4221 64.781 95.6086 63.7758C96.3997 63.0999 97.1769 62.6471 98.1537 62.2903C100.51 61.4258 102.525 60.7774 104.936 60.0946C107.852 59.2747 110.263 58.3862 113.018 57.1237C113.286 59.3227 113.273 61.2062 112.966 63.395C112.743 65.0005 112.251 66.3214 111.374 67.6799L112.805 78.0166C113.245 79.485 113.654 80.7132 114.16 82.1506C114.442 82.9568 114.813 83.5812 115.377 84.209H137.722C136.769 82.7167 136.288 81.2415 136.164 79.4712Z" fill="#5649E6" fill-opacity="0.2"/>
</svg>
