<svg width="551" height="87" viewBox="0 0 551 87" fill="none" xmlns="http://www.w3.org/2000/svg">
<path d="M126.324 18.0298H114.605C104.982 18.0298 98.269 24.7772 98.269 34.393V36.2616H113.775V23.1327H127.115V36.2616H142.677V34.393C142.677 24.7772 135.957 18.0298 126.324 18.0298ZM127.115 61.9784H113.89V48.6692H98.269V50.718C98.269 60.3502 104.982 67.0704 114.605 67.0704H126.324C135.957 67.0704 142.677 60.3502 142.677 50.718V48.6692H127.115V61.9784Z" fill="#5649E6" fill-opacity="0.2"/>
<path d="M28.3336 17.7728H16.6038C6.82274 17.7728 0 24.6077 0 34.3929V86.0232L10.7421 86.0068C10.7421 86.0068 10.8347 66.3053 10.8347 66.2397C10.8617 66.3326 11.2879 66.4692 11.2879 66.4692C13.2637 67.0538 14.9449 67.3379 16.6038 67.3379H28.3336C38.1089 67.3379 44.9316 60.514 44.9316 50.7179V34.3929C44.9316 24.6077 38.1089 17.7728 28.3336 17.7728ZM28.3336 56.5092H16.6038C12.7232 56.5092 10.8347 54.6134 10.8347 50.7179V34.3929C10.8347 30.4974 12.7232 28.6179 16.6038 28.6179H28.3336C32.1049 28.6179 34.0974 30.6121 34.0974 34.3929V50.7179C34.0974 54.4986 32.1049 56.4928 28.3336 56.5092ZM10.7421 70.6215V66.2015L10.7692 66.2124L10.7421 70.6215Z" fill="#5649E6" fill-opacity="0.2"/>
<path d="M186.685 17.7728H174.967C173.433 17.7728 171.687 18.0788 169.656 18.6962L169.11 18.8601V14.5985L169.192 0.0874164L158.445 0L158.369 67.2505L169.001 67.3379L169.083 34.3929C169.083 30.6777 171.174 28.6179 174.967 28.6179H186.685C190.577 28.6179 192.46 30.4974 192.46 34.3929V67.2505L203.207 67.3379L203.295 34.3929C203.295 24.6077 196.466 17.7728 186.685 17.7728Z" fill="#5649E6" fill-opacity="0.2"/>
<path d="M490.923 0.0874164L480.187 0H480.105V11.4734L490.852 11.5608L490.923 0.0874164ZM480.105 42.5499V67.3379H490.852L490.923 17.8603L480.187 17.7728C480.105 17.8603 480.105 42.5499 480.105 42.5499Z" fill="#5649E6" fill-opacity="0.2"/>
<path d="M463.316 28.6178L463.392 17.8601L448.519 17.7727L448.601 0.147383L437.854 0.0654297L437.772 17.8601L428.378 17.7727L428.291 28.5304L437.854 28.6178L437.772 50.7178C437.772 60.6505 444.436 67.3378 454.375 67.3378H463.125L463.212 56.5801L454.375 56.4927C450.484 56.4927 448.601 54.6133 448.601 50.7178V28.5304L463.316 28.6178Z" fill="#5649E6" fill-opacity="0.2"/>
<path d="M295.707 56.4927C291.821 56.4927 289.938 54.6133 289.938 50.7178V0.147383L279.18 0.0654297L279.109 50.7178C279.109 60.6505 285.768 67.3378 295.707 67.3378H304.598L304.686 56.5801L295.707 56.4927Z" fill="#5649E6" fill-opacity="0.2"/>
<path d="M75.2955 17.811C65.3617 17.811 58.6808 24.4929 58.6808 34.4311V67.2723L69.4282 67.3652L69.5156 34.4311C69.5156 30.5411 71.4093 28.6561 75.2955 28.6561H88.2152L88.3135 17.8985L75.2955 17.811Z" fill="#5649E6" fill-opacity="0.2"/>
<path d="M349.186 17.811C349.104 17.8821 344.35 34.9774 344.35 34.9774L339.186 53.5916C338.318 56.5693 338.259 56.8097 336.108 56.8097C333.996 56.8097 333.898 56.6348 333.193 54.1762L323.069 17.8821L311.83 17.811C311.83 17.822 311.83 17.8602 311.841 17.8985H311.83C311.841 17.9749 311.901 18.1935 311.994 18.5377C313.391 23.7717 322.664 56.6184 322.664 56.6184C325.006 64.7646 328.521 67.6602 336.108 67.6602C343.695 67.6602 347.226 64.7154 349.568 56.4054L360.402 17.811H349.186ZM311.901 17.8821L314.259 17.8985H311.917L311.901 17.8821Z" fill="#5649E6" fill-opacity="0.2"/>
<path d="M247.151 17.7728H235.427C225.651 17.7728 218.828 24.6077 218.828 34.3929V50.7179C218.828 60.514 225.651 67.3379 235.427 67.3379H261.211L261.304 56.5802L234.936 56.4928C231.153 56.4928 229.161 54.4986 229.161 50.7179V47.8386L256.201 47.926C259.841 47.926 263.761 45.0085 263.761 40.2552V34.3929C263.761 24.6077 256.926 17.7728 247.151 17.7728ZM235.427 28.0005H247.151C251.392 28.0005 253.548 30.1532 253.548 34.3929V37.6928H228.948L229.041 34.3929C229.041 30.2679 231.306 28.0005 235.427 28.0005Z" fill="#5649E6" fill-opacity="0.2"/>
<path d="M399.903 17.7728H388.174C378.404 17.7728 371.569 24.6077 371.569 34.3929V50.7179C371.569 60.514 378.404 67.3379 388.174 67.3379H413.968L414.056 56.5802L387.688 56.4928C383.916 56.4928 381.924 54.4986 381.924 50.7179V47.8386L408.953 47.926C412.599 47.926 416.507 45.0085 416.507 40.2552V34.3929C416.507 24.6077 409.678 17.7728 399.903 17.7728ZM381.793 35.4036C381.793 30.9071 384.298 28.0005 388.174 28.0005H399.903C404.144 28.0005 406.289 30.1532 406.289 34.3929V37.6928H381.695L381.793 35.4036Z" fill="#5649E6" fill-opacity="0.2"/>
<path d="M534.283 17.7728H512.543L512.461 28.5305L534.283 28.6179C537.569 28.6179 539.408 30.1532 539.741 33.2018V33.9339C539.626 34.5841 539.114 35.0703 536.995 35.3872L520.539 37.0809C507.571 38.4796 505.628 47.1611 505.628 52.2203C505.628 62.6666 513.968 67.3379 522.231 67.3379H536.837C544.986 67.3379 550.668 61.6395 550.668 53.4824V34.3929C550.668 24.6077 543.928 17.7728 534.283 17.7728ZM536.837 57.1211H522.231C516.511 57.1211 515.851 54.3293 515.851 52.2203C515.851 48.68 516.91 47.7621 521.527 47.2977L538.338 45.4947C538.349 45.4947 540.445 45.0085 540.549 44.9812V46.4836L540.456 53.4824C540.456 56.0339 539.37 57.1211 536.837 57.1211Z" fill="#5649E6" fill-opacity="0.2"/>
</svg>
