<svg width="305" height="115" viewBox="0 0 305 115" fill="none" xmlns="http://www.w3.org/2000/svg">
<path d="M56.6358 16.8349C52.8473 13.8755 48.347 11.5882 43.1385 9.9777C29.7777 5.84553 8.48123 8.76073 1.69926 21.8739C0.844792 23.1619 0.32011 24.5968 0.111294 26.1703C0.105533 26.1962 0.0973725 26.2202 0.091132 26.2461L0.101693 26.2576C0.0311271 26.8232 -0.00967606 27.4021 0.0023249 28.004C0.0647299 30.9673 1.17122 33.4621 3.32515 35.4854C5.4786 37.5078 8.02377 38.4895 10.9592 38.4295C14.0794 38.3647 16.6981 37.2789 18.8126 35.1676C20.9272 33.0564 21.9536 30.5185 21.8921 27.5543C21.8632 26.1176 21.5368 24.7532 20.9143 23.4619C20.2896 22.1716 19.4631 21.0426 18.4334 20.0743C17.6221 19.3115 16.7101 18.6827 15.7029 18.1753L15.7092 18.1719C21.821 15.3444 28.531 14.7757 34.7739 17.1638C37.9469 18.3768 40.7144 20.0393 43.0771 22.1491C44.2594 23.2459 45.425 24.5603 46.5756 26.0964C47.7253 27.6296 48.7574 29.4681 49.6695 31.6081C50.5839 33.7477 51.3592 36.2103 51.9977 38.9946C52.6337 41.7802 52.9889 44.9301 53.0609 48.447C53.1545 53.001 52.7249 57.3464 51.7745 61.4834C50.8239 65.6203 49.2206 69.3128 46.9692 72.554C41.8703 79.8976 33.881 83.4653 25.0052 83.3971C16.1277 83.3284 8.8912 80.8826 4.13786 77.8646L1.20242 85.7109C9.02608 89.5186 19.2639 91.2298 27.8422 91.0547C30.8223 90.9936 33.7153 90.7536 36.5236 90.3361C39.3319 89.9193 42.0728 89.2641 44.7467 88.3688C47.4205 87.4751 49.9848 86.283 52.4393 84.794C54.8947 83.3044 57.2589 81.417 59.5294 79.132C61.9656 76.763 63.965 74.2846 65.5284 71.6947C67.091 69.1026 68.343 66.4997 69.2823 63.8835C70.2223 61.2649 70.8728 58.6736 71.2352 56.1079C71.5976 53.5421 71.7536 51.0617 71.7041 48.6625C71.5535 41.3107 70.0552 34.9863 67.2148 29.689C64.3707 24.3908 60.8472 20.1064 56.6358 16.8349Z" fill="#C7C5E4"/>
<path d="M115.75 36.4468C120.861 36.6039 123.825 37.587 123.825 43.5538V47.178V55.6292H115.504H112.818H111.227H108.541H100.221H100.22V51.7385L100.221 51.5403V43.5538C100.221 37.6638 103.111 36.6662 108.105 36.4551L108.296 36.4468V31.0527H76.6163V36.4468C81.7288 36.6039 84.9378 37.587 84.9378 43.5538V46.7748L84.9393 46.8287L84.9378 76.9367C84.9378 82.9034 81.7288 83.8866 76.6163 84.0436V89.4382H108.296V84.0436C103.184 83.8866 100.221 82.9026 100.221 76.9367V70.1926L100.22 70.1911V62.3425H123.825V64.8613V72.0546V76.9367C123.825 82.9034 120.861 83.8866 115.75 84.0436V89.4382H147.428V84.0436C142.317 83.8866 139.107 82.9026 139.107 76.9367V68.043L139.105 68.0372V49.4103L139.107 49.4064V43.5538C139.107 37.5918 142.317 36.6039 147.428 36.4468V31.0527H115.75V36.4468Z" fill="#C7C5E4"/>
<path d="M194.074 67.378C193.659 70.0961 192.913 72.6945 191.836 75.1725C190.76 77.6486 189.271 79.7478 187.365 81.4672C185.46 83.1844 183.017 84.0436 180.035 84.0436C177.138 84.0436 174.755 83.1844 172.891 81.4672C171.029 79.7478 169.56 77.6486 168.482 75.1725C167.405 72.6945 166.659 70.076 166.245 67.3191C165.831 64.5626 165.625 62.1035 165.625 59.9462C165.625 55.6292 165.977 52.1537 166.68 49.5159C167.384 46.8766 168.15 44.7587 168.979 43.1626C169.31 42.4425 169.786 41.6817 170.406 40.8839C171.029 40.0831 171.774 39.3247 172.643 38.6046C173.513 37.8855 174.549 37.2869 175.749 36.8069C176.95 36.3277 178.378 36.0869 180.035 36.0869C183.099 36.0869 185.605 37.0262 187.551 38.9046C189.497 40.7825 190.989 43.0411 192.024 45.6789C193.06 48.3158 193.764 50.9944 194.136 53.7115C194.509 56.4284 194.695 58.6279 194.695 60.3057C194.695 62.3041 194.489 64.6611 194.074 67.378ZM208.546 45.1989C207.594 43.2802 206.517 41.6226 205.317 40.2233C204.115 38.824 202.976 37.647 201.899 36.6878C199.499 34.6092 196.558 32.9114 193.079 31.5913C189.6 30.2736 185.586 29.6135 181.029 29.6135C176.723 29.6135 172.601 30.192 168.669 31.3522C164.735 32.5105 161.276 34.3093 158.294 36.7469C155.313 39.1841 152.933 42.3417 151.152 46.2195C149.37 50.0943 148.48 54.7906 148.48 60.3057C148.48 65.5012 149.308 69.9967 150.965 73.7938C152.62 77.5894 154.878 80.7279 157.735 83.204C160.593 85.682 163.927 87.5205 167.736 88.7192C171.547 89.9182 175.604 90.5183 179.909 90.5183C183.307 90.5183 186.888 90.0575 190.657 89.1383C194.425 88.2189 197.883 86.6204 201.03 84.3436C204.178 82.0658 206.767 78.9686 208.796 75.0515C210.823 71.1354 211.84 66.1396 211.84 60.0657C211.84 56.9478 211.528 54.1713 210.907 51.7322C210.286 49.2965 209.499 47.1181 208.546 45.1989Z" fill="#C7C5E4"/>
<path d="M264.547 67.2591C264.341 69.8167 263.762 72.3344 262.808 74.8125C261.857 77.29 260.387 79.4472 258.399 81.2872C256.409 83.1243 253.679 84.0436 250.2 84.0436C246.804 84.0436 244.154 83.1449 242.248 81.3458C240.343 79.5481 238.915 77.3902 237.962 74.873C237.009 72.3547 236.409 69.7769 236.162 67.139C235.913 64.5012 235.789 62.3425 235.789 60.6648C235.789 56.3492 236.14 52.9324 236.844 50.4145C237.548 47.8967 238.314 45.8796 239.143 44.3603C240.136 42.5217 241.524 40.9232 243.304 39.5646C245.086 38.2062 247.425 37.5255 250.324 37.5255C253.305 37.5255 255.748 38.246 257.653 39.6832C259.558 41.1224 261.049 42.9811 262.125 45.2589C263.203 47.5366 263.928 50.0943 264.299 52.9324C264.673 55.7694 264.858 58.5463 264.858 61.2648C264.858 62.7026 264.755 64.7004 264.547 67.2591ZM272.561 37.8855C270.656 36.2083 268.088 34.6491 264.858 33.2099C261.627 31.7712 257.571 31.0527 252.683 31.0527C247.715 31.0527 243.118 32.1706 238.893 34.4091C234.671 36.647 231.192 39.8046 228.458 43.8811H228.21C228.458 39.0846 229.328 35.2083 230.819 32.2514C232.31 29.2928 234.153 26.9555 236.348 25.2379C238.542 23.5194 240.987 22.2608 243.677 21.4615C246.369 20.6608 249.04 20.0617 251.69 19.6633L261.504 18.2246C263.741 17.904 265.914 17.3845 268.027 16.6645C270.137 15.9454 272.042 14.9061 273.741 13.549C275.44 12.1891 276.91 10.4105 278.151 8.21338C279.395 6.01574 280.265 3.27862 280.76 -8.39233e-05H273.804C273.306 1.59846 272.063 2.67707 270.076 3.23634C268.088 3.79795 266.018 4.19649 263.864 4.43649L254.05 5.63565C252.146 5.87565 250.2 6.19479 248.211 6.59418C246.224 6.99407 244.216 7.57349 242.186 8.33345C240.157 9.09193 238.148 10.1119 236.162 11.3898C234.174 12.6696 232.269 14.2682 230.445 16.1854C228.292 18.5031 226.45 21.2623 224.916 24.4579C223.385 27.6549 222.165 31.032 221.254 34.5891C220.343 38.1461 219.68 41.7824 219.266 45.4989C218.852 49.2149 218.644 52.7921 218.644 56.2292C218.644 58.4672 218.768 60.7862 219.018 63.1826C219.266 65.5804 219.721 67.9575 220.383 70.317C221.047 72.6739 222.02 74.9516 223.304 77.1502C224.587 79.3479 226.265 81.3665 228.335 83.204C230.239 84.8837 232.93 86.5221 236.409 88.1206C239.888 89.719 244.361 90.5183 249.826 90.5183C253.388 90.5183 257.073 90.0791 260.883 89.1997C264.693 88.3198 268.15 86.7419 271.256 84.4627C274.364 82.1859 276.931 79.1087 278.96 75.2316C280.987 71.3552 282.004 66.4603 282.004 60.5448C282.004 55.2701 281.153 50.7937 279.455 47.1181C277.758 43.441 275.46 40.3639 272.561 37.8855Z" fill="#C7C5E4"/>
<path d="M304.193 79.036C303.654 77.8767 302.931 76.8575 302.019 75.9781C301.108 75.0987 300.052 74.4012 298.851 73.8813C297.65 73.3619 296.388 73.1003 295.062 73.1003C292.329 73.1003 290.01 74.0195 288.105 75.8591C286.2 77.6976 285.247 79.9754 285.247 82.6925C285.247 85.3293 286.2 87.5686 288.105 89.4058C290.01 91.2442 292.287 92.1641 294.938 92.1641C297.753 92.1641 300.134 91.2442 302.081 89.4058C304.027 87.5686 305 85.3293 305 82.6925C305 81.4145 304.732 80.1952 304.193 79.036Z" fill="#C7C5E4"/>
<path d="M226.547 114.002C225.199 114.002 223.447 112.788 222.151 111.872L222.368 111.304C223.257 111.602 225.415 112.329 226.466 112.329C228.381 112.329 229.27 111.656 229.27 110.415C229.27 107.422 222.772 109.202 222.772 104.779C222.772 102.731 224.983 101.408 227.06 101.408C228.57 101.408 229.622 101.544 230.997 101.922L230.564 103.405L225.657 102.191C225.065 102.46 224.282 103.161 224.282 103.89C224.282 107.017 231.239 105.4 231.239 109.93C231.239 112.707 228.839 114.002 226.547 114.002Z" fill="#C7C5E4"/>
<path d="M241.16 101.544C243.505 101.544 245.825 103.027 245.825 106.749V112.977L247.956 113.22V113.597H241.618V113.22L243.559 112.977V106.749C243.559 103.782 241.779 102.865 240.216 102.865C239.084 102.865 238.302 103.324 237.277 103.943V112.977L239.435 113.22V113.597H233.097V113.22L235.012 112.977V104.132L233.449 101.814H237.277V103.081L241.16 101.544Z" fill="#C7C5E4"/>
<path d="M255.124 102.11C253.102 102.11 251.754 104.105 251.754 107.692C251.754 111.251 253.102 113.273 255.124 113.273C257.148 113.273 258.765 111.251 258.765 107.692C258.765 104.105 257.148 102.11 255.124 102.11ZM255.124 114.002C251.781 114.002 249.22 111.304 249.22 107.692C249.22 103.486 251.781 101.382 255.124 101.382C258.469 101.382 261.3 103.486 261.3 107.692C261.3 111.304 258.469 114.002 255.124 114.002Z" fill="#C7C5E4"/>
<path d="M272.945 107.341C272.945 103.808 270.007 103.027 268.847 103.027C267.876 103.027 267.23 103.297 266.178 103.864V112.437C266.744 112.788 267.58 112.977 268.362 112.977C269.737 112.977 272.945 112.006 272.945 107.341ZM263.913 112.303V95.9621L262.376 93.6435H266.178V103.161L269.899 101.435C272.73 101.435 275.239 103.808 275.239 107.341C275.239 111.872 271.274 114.002 268.874 114.002C267.257 114.002 265.53 113.381 263.913 112.303Z" fill="#C7C5E4"/>
<path d="M278.553 110.361C279.47 110.361 280.224 111.143 280.224 112.06C280.224 112.977 279.47 113.732 278.553 113.732C277.636 113.732 276.853 112.977 276.853 112.06C276.853 111.143 277.636 110.361 278.553 110.361Z" fill="#C7C5E4"/>
<path d="M286.37 108.717V112.977L288.797 113.22V113.597H282.19V113.22L284.106 112.977V104.133L282.569 101.814H286.37V106.02C287.368 103.161 288.582 101.868 290.605 101.408L291.223 103.324C288.257 103.89 286.37 105.508 286.37 108.717Z" fill="#C7C5E4"/>
<path d="M301.739 113.597V111.682L298.395 113.866C295.807 113.866 293.757 113.219 293.757 108.689V104.132L292.194 101.814H296.023V108.689C296.023 111.79 297.182 112.329 298.692 112.329C299.447 112.329 300.634 111.762 301.739 110.901V104.132L300.175 101.814H304.003V113.597H301.739Z" fill="#C7C5E4"/>
</svg>
