<svg width="342" height="120" viewBox="0 0 342 120" fill="none" xmlns="http://www.w3.org/2000/svg">
<path d="M147.583 0.225708H129.357L129.004 1.14269C130.841 2.27108 134.825 10.58 134.825 12.8653V67.882L133.681 89.155H151.002C149.405 85.0643 147.583 74.0187 147.583 67.882V0.225708Z" fill="#C7C5E4"/>
<path d="M119.439 0.225708H101.2L100.861 1.14269C102.683 2.27108 106.668 10.58 106.668 12.8653V67.882L105.537 89.155H122.915C121.318 85.0643 119.496 74.0187 119.496 67.882L119.439 0.225708Z" fill="#C7C5E4"/>
<path d="M79.8947 79.6612L79.5556 79.3084L93.4577 42.4474H75.2184L74.7663 43.3504C76.0094 44.8315 78.5242 48.5841 77.7192 50.6434L66.5576 79.6612C64.5091 84.8949 67.0099 89.677 72.3645 89.677C77.7192 89.677 81.7174 86.1364 85.7013 82.4968L94.0228 75.1048L92.0873 72.481C92.0873 72.481 82.2824 78.4057 79.8947 79.6612Z" fill="#C7C5E4"/>
<path d="M77.2668 0.225845H59.0414L58.5754 1.14282C60.7509 4.66939 65.6394 15.701 64.9611 17.7464L46.0436 70.7739L27.6771 23.7842C26.4197 20.709 23.5799 6.03802 22.7745 0.225845H0.452059L0 1.14282L11.0482 23.7842L38.2872 89.0989H44.5602L70.6407 16.9282L77.2668 0.225845Z" fill="#C7C5E4"/>
<path d="M90.943 19.115C85.8639 19.0367 81.6834 23.0843 81.605 28.1558C81.6047 28.1752 81.6044 28.1944 81.6041 28.2138C81.6041 32.6433 83.8789 35.6057 89.0075 35.6057C94.0821 35.4832 98.1292 31.3356 98.1201 26.267C98.3878 22.5839 95.6144 19.3812 91.9257 19.1139C91.5984 19.0902 91.27 19.0904 90.943 19.115Z" fill="#C7C5E4"/>
<path d="M290.728 36.7624C296.382 36.7624 299.277 43.3504 300.195 50.8695L281.73 55.1013C281.8 44.2108 284.866 36.7624 290.728 36.7624ZM339.273 57.0059C335.98 57.0059 331.532 60.0811 329.821 62.0136L329.709 62.9306C332.499 65.6087 334.722 68.8176 336.249 72.3679C332.831 78.2929 322.574 83.7523 311.058 83.7523C292.82 83.7523 282.959 75.0766 281.871 58.6705C290.219 57.7957 307.302 56.0466 312.769 55.8489C312.769 41.0511 306.836 32.178 292.988 32.178C278.635 32.178 268.717 44.0135 268.717 60.5042C268.717 80.5357 281.249 94.3606 303.937 94.3606C322.405 94.3606 342 82.1866 342 65.2299C341.9 62.7049 341.11 58.5999 339.273 57.0059Z" fill="#C7C5E4"/>
<path d="M206.398 9.67736C208.108 9.67736 208.673 11.2714 208.899 13.6556L203.657 14.9673C203.714 11.9204 204.236 9.67736 206.398 9.67736ZM214.253 20.5961L213.236 19.806C211.794 21.0249 209.994 21.7428 208.108 21.8516C204.844 21.8516 203.869 19.524 203.671 16.2934L213.123 15.5881C213.01 11.0314 210.608 8.08334 206.737 8.08334C202.061 8.08334 198.981 11.2714 198.981 16.8436C198.981 21.8516 201.806 25.3076 206.85 25.3076C210.156 25.3925 212.431 23.4457 214.253 20.5961Z" fill="#C7C5E4"/>
<path d="M241.591 111.515C232.592 111.515 222.334 109.695 222.334 102.754C222.334 100.144 224.228 97.1116 226.206 95.0235H247.751C254.702 95.0235 257.203 96.6176 257.203 99.566C257.217 103.558 250.266 109.018 241.591 111.515ZM233.637 36.4098C240.249 36.4098 243.089 45.9742 243.089 55.8772C243.089 63.9464 240.927 70.6613 235.573 70.6613C228.396 70.6613 226.107 60.1939 226.107 50.6435C226.05 42.899 228.282 36.4098 233.637 36.4098ZM251.481 82.2711H224.864C225.736 79.4798 226.961 76.8109 228.508 74.329C230.164 74.6198 231.843 74.7663 233.524 74.7663C247.313 74.7663 256.765 66.7959 256.765 51.7721C256.842 48.2579 255.995 44.7847 254.307 41.6998L266.852 43.2375V33.1086C261.954 35.1694 256.928 36.9129 251.806 38.3283C247.991 34.3079 242.171 31.9802 234.852 31.9802C220.159 31.9802 211.95 41.1919 211.95 54.0575C211.95 64.1578 217.22 70.7176 224.963 73.398C220.371 77.8275 214.72 84.4576 212.064 90.4672C213.038 93.8387 216.429 94.9248 222.504 95.0092C216.952 98.7478 212.615 102.43 212.615 107.536C212.615 114.59 220.597 119.372 234.838 119.372C247.836 116.635 267.672 102.98 267.672 92.7382C267.601 85.7977 261.554 82.2711 251.481 82.2711Z" fill="#C7C5E4"/>
<path d="M164.565 2.0458H167.871V17.6335C167.823 20.1154 167.597 22.5904 167.192 25.0397H173.691C173.147 22.5721 172.915 20.0463 172.999 17.5207V2.00322H176.192C177.95 2.34688 179.599 3.1119 180.996 4.23228C180.996 4.72592 181.095 5.13499 181.095 5.37495V20.0317L180.643 25.0397H186.675C186.192 23.374 185.926 21.6528 185.884 19.9188V12.6963C186.723 11.8939 187.808 11.3971 188.964 11.2857C191.691 11.2857 191.691 13.3311 191.691 16.0538V25.0537H197.271C196.753 23.4345 196.486 21.7457 196.48 20.046V13.7684C196.48 10.3547 194.658 7.97053 191.351 7.97053C189.152 8.05166 187.122 9.17233 185.884 10.9895V0.00012207H158.532V5.45951H158.984C160.807 3.97833 163.66 2.0458 164.565 2.0458Z" fill="#C7C5E4"/>
<path d="M187.127 76.8118C185.192 79.4356 182.352 81.5938 179.611 81.5938C175.16 81.5938 172.886 78.1801 172.886 73.7365C172.886 68.7285 175.627 66.0058 179.95 63.7205C182.514 62.4044 184.921 60.805 187.127 58.9527V76.8118ZM200.125 46.7641C200.125 36.8895 191.577 31.9803 181.66 31.9803C171.742 31.9803 159.775 39.499 159.775 49.374C159.765 51.0394 160.037 52.6943 160.581 54.2692C164.339 54.2692 171.177 51.6453 173.112 49.7125C172.886 42.8848 173.578 39.2454 174.144 37.9899C175.57 37.0852 177.246 36.6509 178.933 36.7484C184.062 36.7484 187.127 42.3911 187.127 49.1483V53.6907C184.83 56.0612 182.083 57.9506 179.046 59.2487C167.192 64.8917 158.984 68.3474 158.984 78.025C158.984 84.627 162.403 90.199 171.7 90.199C178.311 90.199 184.019 85.4169 187.085 81.5515V89.1694H202.824C201.227 86.0939 200.083 78.3635 200.083 73.1298L200.125 46.7641Z" fill="#C7C5E4"/>
</svg>
