<svg width="555" height="120" viewBox="0 0 555 120" fill="none" xmlns="http://www.w3.org/2000/svg">
<path d="M60.4168 0C27.0508 0 0 26.8605 0 60C0 93.1336 27.0508 120 60.4168 120C93.7847 120 120.837 93.1336 120.837 60C120.837 26.8605 93.7866 0 60.4168 0ZM60.4168 113.227C30.8143 113.227 6.81287 89.3944 6.81287 60C6.81287 30.5998 30.8123 6.76934 60.4168 6.76934C90.0212 6.76934 114.021 30.5998 114.021 60C114.021 89.3944 90.0212 113.227 60.4168 113.227Z" fill="#5649E6" fill-opacity="0.2"/>
<path d="M104.332 84.1626L95.5593 73.9901C95.4511 73.867 95.3232 73.7615 95.1756 73.6755C94.7271 73.4216 94.1998 73.4157 93.7651 73.6247C92.4253 74.2538 90.8062 74.2421 89.4251 73.4509C88.1955 72.7515 87.4125 71.5715 87.1686 70.2899H87.1706C86.5528 67.0254 84.5619 64.0402 81.4397 62.2526L77.511 60.002L99.8461 47.1979L97.082 42.4408L71.9828 56.8293L68.9668 55.1023V51.6424L94.0641 37.252L91.3 32.4968L68.9668 45.3029V40.7998C68.9668 37.2188 67.3576 34.0129 64.8217 31.8521C63.8242 31.0043 63.1907 29.7422 63.1907 28.3336C63.1907 26.7492 63.9895 25.3465 65.2112 24.5104C65.6106 24.2408 65.8683 23.7836 65.8683 23.2698C65.8683 23.0999 65.8407 22.9357 65.7896 22.7834L61.306 10.1551C61.1821 9.78584 60.8319 9.52209 60.4207 9.52209C60.0115 9.52209 59.6614 9.78584 59.5374 10.1551L55.0558 22.7834C55.0027 22.9357 54.9752 23.0999 54.9752 23.2698C54.9752 23.7836 55.2349 24.2408 55.6303 24.5104H55.6323C56.852 25.3465 57.6527 26.7492 57.6527 28.3336C57.6527 29.7422 57.0212 31.0043 56.0198 31.8521C53.482 34.0129 51.8766 37.2207 51.8766 40.7998V45.3029L29.5415 32.4968L26.7774 37.252L51.8766 51.6424V55.1043L48.8607 56.8293L23.7615 42.4408L20.9993 47.1979L43.3345 60.002L39.4037 62.2526C36.2816 64.0402 34.2906 67.0254 33.6749 70.2899C33.4309 71.5715 32.6499 72.7515 31.4203 73.4509C30.0373 74.2421 28.4201 74.2538 27.0784 73.6247C26.6417 73.4177 26.1164 73.4216 25.6698 73.6755C25.5203 73.7615 25.3904 73.8689 25.2862 73.9901L16.5119 84.1587C16.2541 84.4498 16.1991 84.8796 16.4037 85.2391C16.6083 85.5888 17.0135 85.7588 17.3952 85.6865L30.6511 83.221C30.8104 83.1897 30.9698 83.1331 31.1154 83.0491C31.5659 82.7892 31.8295 82.3419 31.8689 81.8613C31.9889 80.396 32.8112 79.005 34.1923 78.2138C35.4179 77.5144 36.8364 77.4246 38.0778 77.8563C41.2314 78.9582 44.8296 78.7374 47.9518 76.944L51.8806 74.6973V100.306H57.4088V71.5246L60.4266 69.7956L63.4426 71.5246V100.304H68.9727V74.6953L72.8995 76.942C76.0217 78.7354 79.6219 78.9562 82.7755 77.8544C84.013 77.4207 85.4334 77.5105 86.661 78.2119C88.0421 79.0031 88.8625 80.3941 88.9825 81.8593C89.0198 82.3399 89.2854 82.7892 89.732 83.0471C89.8796 83.1311 90.0389 83.1878 90.1983 83.219L103.452 85.6845C103.836 85.7568 104.239 85.5868 104.446 85.2371C104.644 84.8796 104.587 84.4518 104.332 84.1626V84.1626ZM51.8747 68.3577L44.5031 72.5815C43.059 73.4098 41.2157 72.9175 40.3835 71.4855C39.5513 70.0496 40.0451 68.219 41.4891 67.3907L48.8607 63.165L51.8766 64.8959V68.3577H51.8747ZM57.4029 40.0222C57.4029 38.3656 58.7524 37.0234 60.4188 37.0234C62.0851 37.0234 63.4367 38.3656 63.4367 40.0222V48.4717L60.4207 50.1987L57.4029 48.4717V40.0222ZM63.8891 61.9889L60.4207 63.9757L56.9484 61.9869V58.0074L60.4207 56.0166L63.8891 58.0074V61.9889ZM80.4561 71.4875C79.6219 72.9175 77.7746 73.4098 76.3325 72.5835L68.9629 68.3558V64.8979L71.9788 63.1669L79.3484 67.3926C80.7925 68.221 81.2863 70.0496 80.4561 71.4875V71.4875Z" fill="#5649E6" fill-opacity="0.2"/>
<path d="M462.697 47.8112H442.532V7.77734H424.111V112.221H442.532V66.3551H462.697V112.221H481.518V7.77734H462.697V47.8112Z" fill="#5649E6" fill-opacity="0.2"/>
<path d="M134.286 7.77734L154.729 71.8194V112.221H175.191V69.7447L196.383 7.77734H179.163L165.252 48.4676L152.659 7.77734H134.286Z" fill="#5649E6" fill-opacity="0.2"/>
<path d="M311.94 7.77734L303.117 57.4602L292.884 7.77734H264.128V112.221H280.618V33.4911L294.69 101.933H310.091L322.571 32.3795V112.221H341.906V7.77734H311.94Z" fill="#5649E6" fill-opacity="0.2"/>
<path d="M537.644 7.77734H509.159L489.938 112.221H506.983L511.06 87.9174H532.262L536.216 112.221H554.998L537.644 7.77734ZM513.983 70.5066L521.821 23.7952L529.429 70.5066H513.983Z" fill="#5649E6" fill-opacity="0.2"/>
<path d="M369.549 7.77734L350.323 112.221H367.372L371.452 87.9174H392.654L396.608 112.221H415.386L398.031 7.77734H369.549ZM374.371 70.5066L382.209 23.7952L389.817 70.5066H374.371Z" fill="#5649E6" fill-opacity="0.2"/>
<path d="M209.562 7.77734L190.335 112.221H207.386L211.466 87.9174H232.666L236.623 112.221H255.397L238.043 7.77734H209.562ZM214.386 70.5066L222.224 23.7952L229.83 70.5066H214.386Z" fill="#5649E6" fill-opacity="0.2"/>
</svg>
